<svg width="35" height="35" viewBox="0 0 35 35" fill="none" xmlns="http://www.w3.org/2000/svg">
<circle cx="17.3742" cy="17.299" r="16.1217" stroke="black" stroke-width="2"/>
<path d="M9.59152 12.6296C9.71791 18.8166 12.7512 22.5348 18.0693 22.5348H18.3707V18.9951C19.3087 19.1156 20.191 19.5157 20.907 20.1454C21.623 20.7751 22.1409 21.6062 22.3956 22.5348H25.1567C24.8729 21.4657 24.37 20.4703 23.6812 19.614C22.9925 18.7577 22.1335 18.0602 21.1609 17.5673C22.0322 17.028 22.7849 16.3111 23.3721 15.4614C23.9593 14.6118 24.3682 13.6478 24.5734 12.6296H22.0651C21.5206 14.5928 19.9068 16.3775 18.3707 16.5461V12.6296H15.8623V19.4909C14.3068 19.0943 12.3429 17.1707 12.2554 12.6296H9.59152Z" fill="black"/>
</svg>
