<svg width="35" height="35" viewBox="0 0 35 35" fill="none" xmlns="http://www.w3.org/2000/svg">
<circle cx="17.8783" cy="17.299" r="16.1217" stroke="black" stroke-width="2"/>
<path fill-rule="evenodd" clip-rule="evenodd" d="M17.8783 13.267C15.6279 13.267 13.8463 15.0486 13.8463 17.299C13.8463 19.5494 15.6279 21.3309 17.8783 21.3309C20.1287 21.3309 21.9102 19.5494 21.9102 17.299C21.9102 15.0486 20.1287 13.267 17.8783 13.267ZM17.8783 19.9244C16.4718 19.9244 15.2528 18.7992 15.2528 17.299C15.2528 15.8925 16.378 14.6735 17.8783 14.6735C19.2848 14.6735 20.5037 15.7987 20.5037 17.299C20.5037 18.7055 19.2848 19.9244 17.8783 19.9244Z" fill="black"/>
<path d="M22.9417 13.1732C22.9417 13.6911 22.5219 14.1109 22.004 14.1109C21.4861 14.1109 21.0663 13.6911 21.0663 13.1732C21.0663 12.6554 21.4861 12.2356 22.004 12.2356C22.5219 12.2356 22.9417 12.6554 22.9417 13.1732Z" fill="black"/>
<path fill-rule="evenodd" clip-rule="evenodd" d="M14.6902 9.51636C13.8463 9.51636 13.2837 9.70389 12.8149 9.89142C12.3461 10.079 11.8772 10.3603 11.4084 10.8291C10.9396 11.2979 10.752 11.673 10.4707 12.2356C10.2832 12.7044 10.1894 13.267 10.0957 14.1109V20.487C10.0957 21.3309 10.2832 21.8935 10.4707 22.3624C10.6583 22.8312 10.9396 23.3 11.4084 23.7688C11.8772 24.2377 12.2523 24.4252 12.8149 24.7065C13.2837 24.894 13.8463 24.9878 14.6902 25.0816H21.0663C21.9102 25.0816 22.4728 24.894 22.9417 24.7065C23.4105 24.519 23.8793 24.2377 24.3482 23.7688C24.817 23.3 25.0045 22.9249 25.2858 22.3624C25.4734 21.8935 25.5671 21.3309 25.6609 20.487V14.1109C25.6609 13.267 25.4734 12.7044 25.2858 12.2356C25.0983 11.7668 24.817 11.2979 24.3482 10.8291C23.8793 10.3603 23.5043 10.1727 22.9417 9.89142C22.4728 9.70389 21.9102 9.61012 21.0663 9.51636H14.6902ZM21.0663 10.9229C21.7004 10.9229 22.0665 11.0569 22.3345 11.1549C22.3836 11.1729 22.4293 11.1896 22.4728 11.2042C22.5511 11.2433 22.6252 11.2783 22.6962 11.3118C22.9652 11.439 23.1879 11.5442 23.4105 11.7668C23.6918 12.0481 23.8793 12.3293 23.9731 12.7044C24.0669 12.9857 24.1606 13.3608 24.2544 14.1109V20.487C24.2544 21.1211 24.1204 21.4872 24.0223 21.7552C24.0044 21.8042 23.9876 21.85 23.9731 21.8935C23.934 21.9718 23.8989 22.046 23.8654 22.117C23.7383 22.386 23.6331 22.6086 23.4105 22.8312C23.1292 23.1125 22.8479 23.3 22.4728 23.3938C22.1915 23.4875 21.8165 23.5813 21.0663 23.6751H14.6902C14.0561 23.6751 13.69 23.5411 13.4221 23.443C13.373 23.425 13.3272 23.4083 13.2837 23.3938C13.2055 23.3547 13.1313 23.3196 13.0604 23.2861C12.7913 23.159 12.5687 23.0538 12.3461 22.8312C12.0648 22.5499 11.8772 22.2686 11.7835 21.8935C11.6897 21.6122 11.5959 21.2372 11.5022 20.487V14.1109C11.5022 13.4768 11.6362 13.1107 11.7343 12.8427C11.7522 12.7937 11.769 12.7479 11.7835 12.7044C11.8226 12.6261 11.8577 12.5519 11.8912 12.481C12.0183 12.2119 12.1235 11.9893 12.3461 11.7668C12.6274 11.4855 12.9087 11.2979 13.2837 11.2042C13.565 11.1104 13.9401 11.0166 14.6902 10.9229H21.0663Z" fill="black"/>
</svg>
