<svg width="35" height="35" viewBox="0 0 35 35" fill="none" xmlns="http://www.w3.org/2000/svg">
<path d="M23.9633 22.5864C23.9633 22.5864 23.0483 23.4751 22.8241 23.7356C22.4588 24.1211 22.0285 24.3031 21.4643 24.3031C21.41 24.3031 21.3522 24.3031 21.2979 24.2996C20.2238 24.2317 19.2256 23.8177 18.477 23.4644C16.43 22.4865 14.6325 21.0981 13.1389 19.3385C11.9056 17.8716 11.081 16.5154 10.5349 15.0592C10.1986 14.1705 10.0756 13.4781 10.1299 12.8249C10.166 12.4073 10.3288 12.0611 10.6289 11.7649L11.8622 10.5478C12.0394 10.3837 12.2275 10.2944 12.4119 10.2944C12.6398 10.2944 12.8242 10.4301 12.9399 10.5443C12.9436 10.5478 12.9472 10.5514 12.9508 10.555C13.1714 10.7584 13.3812 10.969 13.6018 11.1938C13.7139 11.3081 13.8296 11.4223 13.9454 11.54L14.9327 12.5144C15.3161 12.8927 15.3161 13.2425 14.9327 13.6208C14.8278 13.7243 14.7265 13.8278 14.6217 13.9278C14.3179 14.2347 14.5565 13.9992 14.2419 14.2776C14.2346 14.2847 14.2274 14.2883 14.2238 14.2954C13.9128 14.6024 13.9706 14.9022 14.0357 15.1056C14.0393 15.1163 14.043 15.127 14.0466 15.1377C14.3034 15.7516 14.665 16.3298 15.2147 17.0187L15.2184 17.0222C16.2165 18.2357 17.269 19.1815 18.4299 19.906C18.5782 19.9988 18.7301 20.0738 18.8747 20.1452C19.0049 20.2094 19.1279 20.2701 19.2328 20.3343C19.2472 20.3415 19.2617 20.3522 19.2762 20.3593C19.3991 20.42 19.5149 20.4486 19.6342 20.4486C19.9344 20.4486 20.1225 20.263 20.1839 20.2023L20.8928 19.5027C21.0158 19.3813 21.2111 19.235 21.4389 19.235C21.6632 19.235 21.8476 19.3742 21.9597 19.4956C21.9634 19.4991 21.9634 19.4991 21.967 19.5027L23.9597 21.4693C24.3322 21.8333 23.9633 22.5864 23.9633 22.5864Z" stroke="black" stroke-width="2" stroke-linecap="round" stroke-linejoin="round"/>
<circle cx="17.1217" cy="17.299" r="16.1217" stroke="black" stroke-width="2"/>
</svg>
