<svg width="43" height="43" viewBox="0 0 43 43" fill="none" xmlns="http://www.w3.org/2000/svg">
<g filter="url(#filter0_d_9_1404)">
<circle cx="21.8783" cy="17.1217" r="16.1217" stroke="black" stroke-width="2"/>
<path fill-rule="evenodd" clip-rule="evenodd" d="M21.8783 13.0895C19.6279 13.0895 17.8464 14.8711 17.8464 17.1215C17.8464 19.3719 19.6279 21.1534 21.8783 21.1534C24.1287 21.1534 25.9103 19.3719 25.9103 17.1215C25.9103 14.8711 24.1287 13.0895 21.8783 13.0895ZM21.8783 19.7469C20.4718 19.7469 19.2529 18.6217 19.2529 17.1215C19.2529 15.715 20.3781 14.496 21.8783 14.496C23.2848 14.496 24.5038 15.6212 24.5038 17.1215C24.5038 18.528 23.2848 19.7469 21.8783 19.7469Z" fill="black"/>
<path d="M26.9417 12.9958C26.9417 13.5136 26.5219 13.9334 26.004 13.9334C25.4862 13.9334 25.0664 13.5136 25.0664 12.9958C25.0664 12.4779 25.4862 12.0581 26.004 12.0581C26.5219 12.0581 26.9417 12.4779 26.9417 12.9958Z" fill="black"/>
<path fill-rule="evenodd" clip-rule="evenodd" d="M18.6903 9.33887C17.8464 9.33887 17.2838 9.5264 16.8149 9.71393C16.3461 9.90147 15.8773 10.1828 15.4084 10.6516C14.9396 11.1204 14.7521 11.4955 14.4708 12.0581C14.2832 12.5269 14.1895 13.0895 14.0957 13.9334V20.3095C14.0957 21.1534 14.2832 21.716 14.4708 22.1849C14.6583 22.6537 14.9396 23.1225 15.4084 23.5914C15.8773 24.0602 16.2523 24.2477 16.8149 24.529C17.2838 24.7166 17.8464 24.8103 18.6903 24.9041H25.0664C25.9103 24.9041 26.4729 24.7166 26.9417 24.529C27.4105 24.3415 27.8794 24.0602 28.3482 23.5914C28.817 23.1225 29.0046 22.7475 29.2859 22.1849C29.4734 21.716 29.5672 21.1534 29.6609 20.3095V13.9334C29.6609 13.0895 29.4734 12.5269 29.2859 12.0581C29.0983 11.5893 28.817 11.1204 28.3482 10.6516C27.8794 10.1828 27.5043 9.99523 26.9417 9.71393C26.4729 9.5264 25.9103 9.43263 25.0664 9.33887H18.6903ZM25.0664 10.7454C25.7005 10.7454 26.0665 10.8794 26.3345 10.9775C26.3836 10.9954 26.4294 11.0122 26.4729 11.0267C26.5511 11.0658 26.6253 11.1008 26.6962 11.1343C26.9653 11.2615 27.1879 11.3667 27.4105 11.5893C27.6918 11.8706 27.8794 12.1519 27.9731 12.5269C28.0669 12.8082 28.1607 13.1833 28.2544 13.9334V20.3095C28.2544 20.9436 28.1204 21.3097 28.0223 21.5777C28.0044 21.6268 27.9876 21.6725 27.9731 21.716C27.934 21.7943 27.8989 21.8685 27.8654 21.9395C27.7383 22.2085 27.6331 22.4311 27.4105 22.6537C27.1292 22.935 26.8479 23.1225 26.4729 23.2163C26.1916 23.3101 25.8165 23.4038 25.0664 23.4976H18.6903C18.0562 23.4976 17.6901 23.3636 17.4221 23.2655C17.373 23.2475 17.3273 23.2308 17.2838 23.2163C17.2055 23.1772 17.1314 23.1421 17.0604 23.1086C16.7914 22.9815 16.5687 22.8763 16.3461 22.6537C16.0648 22.3724 15.8773 22.0911 15.7835 21.716C15.6897 21.4347 15.596 21.0597 15.5022 20.3095V13.9334C15.5022 13.2993 15.6362 12.9332 15.7343 12.6652C15.7522 12.6162 15.769 12.5704 15.7835 12.5269C15.8226 12.4486 15.8577 12.3744 15.8912 12.3035C16.0183 12.0344 16.1235 11.8118 16.3461 11.5893C16.6274 11.308 16.9087 11.1204 17.2838 11.0267C17.5651 10.9329 17.9401 10.8391 18.6903 10.7454H25.0664Z" fill="black"/>
</g>
<defs>
<filter id="filter0_d_9_1404" x="0.756592" y="0" width="42.2434" height="42.2437" filterUnits="userSpaceOnUse" color-interpolation-filters="sRGB">
<feFlood flood-opacity="0" result="BackgroundImageFix"/>
<feColorMatrix in="SourceAlpha" type="matrix" values="0 0 0 0 0 0 0 0 0 0 0 0 0 0 0 0 0 0 127 0" result="hardAlpha"/>
<feOffset dy="4"/>
<feGaussianBlur stdDeviation="2"/>
<feComposite in2="hardAlpha" operator="out"/>
<feColorMatrix type="matrix" values="0 0 0 0 0 0 0 0 0 0 0 0 0 0 0 0 0 0 0.25 0"/>
<feBlend mode="normal" in2="BackgroundImageFix" result="effect1_dropShadow_9_1404"/>
<feBlend mode="normal" in="SourceGraphic" in2="effect1_dropShadow_9_1404" result="shape"/>
</filter>
</defs>
</svg>
