<svg width="43" height="43" viewBox="0 0 43 43" fill="none" xmlns="http://www.w3.org/2000/svg">
<g filter="url(#filter0_d_9_1398)">
<circle cx="21.3742" cy="17.1217" r="16.1217" stroke="black" stroke-width="2"/>
<path d="M13.5916 12.4521C13.7179 18.6391 16.7513 22.3573 22.0693 22.3573H22.3707V18.8176C23.3087 18.9381 24.191 19.3382 24.907 19.9679C25.623 20.5976 26.1409 21.4288 26.3957 22.3573H29.1568C28.8729 21.2883 28.37 20.2928 27.6813 19.4365C26.9925 18.5802 26.1335 17.8827 25.161 17.3898C26.0322 16.8505 26.785 16.1336 27.3721 15.284C27.9593 14.4343 28.3683 13.4703 28.5734 12.4521H26.0651C25.5207 14.4153 23.9068 16.2 22.3707 16.3686V12.4521H19.8624V19.3134C18.3068 18.9168 16.3429 16.9932 16.2554 12.4521H13.5916Z" fill="black"/>
</g>
<defs>
<filter id="filter0_d_9_1398" x="0.252441" y="0" width="42.2434" height="42.2437" filterUnits="userSpaceOnUse" color-interpolation-filters="sRGB">
<feFlood flood-opacity="0" result="BackgroundImageFix"/>
<feColorMatrix in="SourceAlpha" type="matrix" values="0 0 0 0 0 0 0 0 0 0 0 0 0 0 0 0 0 0 127 0" result="hardAlpha"/>
<feOffset dy="4"/>
<feGaussianBlur stdDeviation="2"/>
<feComposite in2="hardAlpha" operator="out"/>
<feColorMatrix type="matrix" values="0 0 0 0 0 0 0 0 0 0 0 0 0 0 0 0 0 0 0.25 0"/>
<feBlend mode="normal" in2="BackgroundImageFix" result="effect1_dropShadow_9_1398"/>
<feBlend mode="normal" in="SourceGraphic" in2="effect1_dropShadow_9_1398" result="shape"/>
</filter>
</defs>
</svg>
