<svg width="43" height="43" viewBox="0 0 43 43" fill="none" xmlns="http://www.w3.org/2000/svg">
<g filter="url(#filter0_d_9_1392)">
<path d="M27.9632 22.4091C27.9632 22.4091 27.0482 23.2979 26.824 23.5584C26.4587 23.9439 26.0284 24.1259 25.4642 24.1259C25.4099 24.1259 25.3521 24.1259 25.2978 24.1223C24.2237 24.0545 23.2255 23.6405 22.4769 23.2871C20.4299 22.3092 18.6324 20.9208 17.1388 19.1613C15.9055 17.6944 15.0809 16.3381 14.5348 14.8819C14.1985 13.9932 14.0755 13.3008 14.1298 12.6477C14.1659 12.2301 14.3287 11.8839 14.6289 11.5877L15.8621 10.3706C16.0393 10.2064 16.2274 10.1172 16.4118 10.1172C16.6397 10.1172 16.8241 10.2528 16.9399 10.367C16.9435 10.3706 16.9471 10.3742 16.9507 10.3777C17.1713 10.5812 17.3811 10.7917 17.6017 11.0166C17.7138 11.1308 17.8295 11.245 17.9453 11.3628L18.9326 12.3372C19.316 12.7155 19.316 13.0653 18.9326 13.4436C18.8277 13.5471 18.7265 13.6506 18.6216 13.7505C18.3178 14.0575 18.5564 13.822 18.2418 14.1003C18.2345 14.1075 18.2273 14.111 18.2237 14.1182C17.9127 14.4251 17.9705 14.7249 18.0356 14.9284C18.0393 14.9391 18.0429 14.9498 18.0465 14.9605C18.3033 15.5744 18.6649 16.1526 19.2146 16.8414L19.2183 16.845C20.2164 18.0585 21.2689 19.0043 22.4298 19.7288C22.5781 19.8216 22.73 19.8966 22.8746 19.9679C23.0048 20.0322 23.1278 20.0929 23.2327 20.1571C23.2472 20.1642 23.2616 20.1749 23.2761 20.1821C23.399 20.2428 23.5148 20.2713 23.6341 20.2713C23.9343 20.2713 24.1224 20.0857 24.1839 20.025L24.8928 19.3254C25.0157 19.2041 25.211 19.0578 25.4389 19.0578C25.6631 19.0578 25.8475 19.197 25.9596 19.3183C25.9633 19.3219 25.9633 19.3219 25.9669 19.3254L27.9596 21.292C28.3321 21.6561 27.9632 22.4091 27.9632 22.4091Z" stroke="black" stroke-width="2" stroke-linecap="round" stroke-linejoin="round"/>
<circle cx="21.1217" cy="17.1217" r="16.1217" stroke="black" stroke-width="2"/>
</g>
<defs>
<filter id="filter0_d_9_1392" x="0" y="0" width="42.2434" height="42.2437" filterUnits="userSpaceOnUse" color-interpolation-filters="sRGB">
<feFlood flood-opacity="0" result="BackgroundImageFix"/>
<feColorMatrix in="SourceAlpha" type="matrix" values="0 0 0 0 0 0 0 0 0 0 0 0 0 0 0 0 0 0 127 0" result="hardAlpha"/>
<feOffset dy="4"/>
<feGaussianBlur stdDeviation="2"/>
<feComposite in2="hardAlpha" operator="out"/>
<feColorMatrix type="matrix" values="0 0 0 0 0 0 0 0 0 0 0 0 0 0 0 0 0 0 0.25 0"/>
<feBlend mode="normal" in2="BackgroundImageFix" result="effect1_dropShadow_9_1392"/>
<feBlend mode="normal" in="SourceGraphic" in2="effect1_dropShadow_9_1392" result="shape"/>
</filter>
</defs>
</svg>
